 http://img269.imageshack.us/img269/666/inherskin.jpg

Country.......: Australia
Genre.........: Drama, Thriller
Date release..: 14.03.2009 [World]
Director......: Simone North
Writers.......: Simone North
Duration......: 108 min.
More..........: http://www.imdb.com/title/tt0995851
Trailer.......: http://www.imdb.com/video/screenplay/vi1035836697
Trailer.......:

Pilot :
Tale of a 15-year-old Australian girl who went missing and was found to have been murdered by her babysitter. 

Cats :
Guy Pearce   	 ...  	Mr. Barber
Sam Neill 	... 	Mr. Reid
Miranda Otto 	... 	Mrs. Barber
Ruth Bradley 	... 	Caroline Reid
Kate Bell 	... 	Rachel Barber
Dena Kaplan 	... 	Girl With Pram
Rebecca Gibney 	... 	Mrs. Reid
Justine Clarke 		
Khan Chittenden 	... 	Manni
Jeremy Sims 	... 	Mclean
Steven Vidler 		
Jack Finsterer 		
Diane Craig 	... 	Joy
Tim Boyle 	... 	Policeman 4
Paul Denny

Data Technical :
!!! SAMPLE !!!
Audio.....: English
Subtitles.: English .srt
Format                           : AVI
Format/Info                      : Audio Video Interleave
File size                        : 701 MiB
Duration                         : 1h 48mn
Overall bit rate                 : 906 Kbps
Writing application              : VirtualDubMod 1.5.10.2 (build 2540/release)
Writing library                  : VirtualDubMod build 2540/release
Video
ID                               : 0
Format                           : MPEG-4 Visual
Format profile                   : Advanced Simple@L5
Format settings, BVOP            : Yes
Format settings, QPel            : No
Format settings, GMC             : No warppoints
Format settings, Matrix          : Default (H.263)
Muxing mode                      : Packed bitstream
Codec ID                         : XVID
Codec ID/Hint                    : XviD
Duration                         : 1h 48mn
Bit rate                         : 760 Kbps
Width                            : 576 pixels
Height                           : 240 pixels
Display aspect ratio             : 2.40:1
Frame rate                       : 23.976 fps
Color space                      : YUV
Chroma subsampling               : 4:2:0
Bit depth                        : 8 bits
Scan type                        : Progressive
Bits/(Pixel*Frame)               : 0.229
Stream size                      : 588 MiB (84%)
Writing library                  : XviD 61
Audio
ID                               : 1
Format                           : MPEG Audio
Format version                   : Version 1
Format profile                   : Layer 3
Mode                             : Joint stereo
Mode extension                   : MS Stereo
Codec ID                         : 55
Codec ID/Hint                    : MP3
Duration                         : 1h 48mn
Bit rate mode                    : Variable
Bit rate                         : 133 Kbps
Minimum bit rate                 : 128 Kbps
Channel(s)                       : 2 channels
Sampling rate                    : 48.0 KHz
Stream size                      : 103 MiB (15%)
Alignment                        : Aligned on interleaves
Interleave, duration             : 24 ms (0.58 video frame)
Interleave, preload duration     : 138 ms
Writing library                  : LAME3.95 
Encoding settings                : -m j -V 4 -q 3 -lowpass 18 --vbr-old -b 128

Screen : 
http://img263.imageshack.us/img263/3323/inherskin2009s1.jpg 
http://img713.imageshack.us/img713/4451/inherskin2009s2.jpg 
http://img97.imageshack.us/img97/182/inherskin2009s3.jpg 
http://img651.imageshack.us/img651/8992/inherskin2009s4.jpg 
http://img684.imageshack.us/img684/7332/inherskin2009s5.jpg